<svg width="148" height="38" viewBox="0 0 148 38" fill="none" xmlns="http://www.w3.org/2000/svg">
<path d="M47.04 25.8916C46.9067 25.8916 46.7933 25.8449 46.7 25.7516C46.6067 25.6583 46.56 25.5449 46.56 25.4116V12.3716C46.56 12.2249 46.6067 12.1116 46.7 12.0316C46.7933 11.9383 46.9067 11.8916 47.04 11.8916H48.9C49.0467 11.8916 49.16 11.9383 49.24 12.0316C49.3333 12.1116 49.38 12.2249 49.38 12.3716V23.5116H55.72C55.8667 23.5116 55.9867 23.5583 56.08 23.6516C56.1733 23.7449 56.22 23.8649 56.22 24.0116V25.4116C56.22 25.5583 56.1733 25.6783 56.08 25.7716C55.9867 25.8516 55.8667 25.8916 55.72 25.8916H47.04ZM60.9416 26.0916C60.2616 26.0916 59.6349 25.9583 59.0616 25.6916C58.5016 25.4116 58.0549 25.0383 57.7216 24.5716C57.4016 24.1049 57.2416 23.5916 57.2416 23.0316C57.2416 22.1249 57.6082 21.3916 58.3416 20.8316C59.0749 20.2716 60.0816 19.8916 61.3616 19.6916L64.1016 19.2916V18.8716C64.1016 18.2849 63.9549 17.8449 63.6616 17.5516C63.3682 17.2583 62.8949 17.1116 62.2416 17.1116C61.8016 17.1116 61.4416 17.1983 61.1616 17.3716C60.8949 17.5316 60.6816 17.6916 60.5216 17.8516C60.3616 18.0249 60.2549 18.1383 60.2016 18.1916C60.1482 18.3516 60.0482 18.4316 59.9016 18.4316H58.3616C58.2416 18.4316 58.1349 18.3916 58.0416 18.3116C57.9616 18.2316 57.9216 18.1249 57.9216 17.9916C57.9349 17.6583 58.0949 17.2783 58.4016 16.8516C58.7216 16.4249 59.2082 16.0583 59.8616 15.7516C60.5149 15.4449 61.3149 15.2916 62.2616 15.2916C63.8349 15.2916 64.9816 15.6449 65.7016 16.3516C66.4216 17.0583 66.7816 17.9849 66.7816 19.1316V25.4116C66.7816 25.5449 66.7349 25.6583 66.6416 25.7516C66.5616 25.8449 66.4482 25.8916 66.3016 25.8916H64.6816C64.5482 25.8916 64.4349 25.8449 64.3416 25.7516C64.2482 25.6583 64.2016 25.5449 64.2016 25.4116V24.6316C63.9082 25.0583 63.4882 25.4116 62.9416 25.6916C62.4082 25.9583 61.7416 26.0916 60.9416 26.0916ZM61.6216 24.1916C62.3549 24.1916 62.9549 23.9516 63.4216 23.4716C63.8882 22.9916 64.1216 22.2916 64.1216 21.3716V20.9516L62.1216 21.2716C61.3482 21.3916 60.7616 21.5849 60.3616 21.8516C59.9749 22.1183 59.7816 22.4449 59.7816 22.8316C59.7816 23.2583 59.9616 23.5916 60.3216 23.8316C60.6816 24.0716 61.1149 24.1916 61.6216 24.1916ZM73.2873 26.0916C72.2873 26.0916 71.4473 25.9449 70.7673 25.6516C70.0873 25.3449 69.5807 24.9916 69.2473 24.5916C68.9273 24.1783 68.7673 23.8249 68.7673 23.5316C68.7673 23.3983 68.814 23.2916 68.9073 23.2116C69.0007 23.1316 69.1073 23.0916 69.2273 23.0916H70.8073C70.9273 23.0916 71.0273 23.1383 71.1073 23.2316C71.1607 23.2716 71.3007 23.3916 71.5273 23.5916C71.754 23.8049 72.0207 23.9716 72.3273 24.0916C72.634 24.2116 72.974 24.2716 73.3473 24.2716C73.8807 24.2716 74.3207 24.1649 74.6673 23.9516C75.014 23.7383 75.1873 23.4449 75.1873 23.0716C75.1873 22.7916 75.1073 22.5649 74.9473 22.3916C74.8007 22.2183 74.5273 22.0649 74.1273 21.9316C73.7273 21.7849 73.134 21.6316 72.3473 21.4716C71.214 21.2316 70.374 20.8649 69.8273 20.3716C69.294 19.8783 69.0273 19.2249 69.0273 18.4116C69.0273 17.8783 69.1873 17.3783 69.5073 16.9116C69.8273 16.4316 70.3007 16.0449 70.9273 15.7516C71.5673 15.4449 72.3273 15.2916 73.2073 15.2916C74.1007 15.2916 74.874 15.4383 75.5273 15.7316C76.1807 16.0116 76.674 16.3516 77.0073 16.7516C77.354 17.1383 77.5273 17.4849 77.5273 17.7916C77.5273 17.9116 77.4807 18.0183 77.3873 18.1116C77.3073 18.1916 77.2073 18.2316 77.0873 18.2316H75.6073C75.5007 18.2316 75.3873 18.1849 75.2673 18.0916C75.174 18.0249 75.0273 17.8983 74.8273 17.7116C74.6273 17.5249 74.394 17.3783 74.1273 17.2716C73.8607 17.1649 73.5473 17.1116 73.1873 17.1116C72.694 17.1116 72.3073 17.2183 72.0273 17.4316C71.7607 17.6449 71.6273 17.9249 71.6273 18.2716C71.6273 18.5249 71.694 18.7316 71.8273 18.8916C71.9607 19.0516 72.2207 19.2049 72.6073 19.3516C72.994 19.4983 73.574 19.6449 74.3473 19.7916C75.6273 20.0449 76.5407 20.4383 77.0873 20.9716C77.6473 21.5049 77.9273 22.1583 77.9273 22.9316C77.9273 23.8649 77.5207 24.6249 76.7073 25.2116C75.894 25.7983 74.754 26.0916 73.2873 26.0916ZM80.4919 25.8916C80.3585 25.8916 80.2452 25.8449 80.1519 25.7516C80.0585 25.6583 80.0119 25.5449 80.0119 25.4116V12.1716C80.0119 12.0249 80.0585 11.9116 80.1519 11.8316C80.2452 11.7383 80.3585 11.6916 80.4919 11.6916H82.1519C82.2985 11.6916 82.4119 11.7383 82.4919 11.8316C82.5852 11.9116 82.6319 12.0249 82.6319 12.1716V25.4116C82.6319 25.5449 82.5852 25.6583 82.4919 25.7516C82.4119 25.8449 82.2985 25.8916 82.1519 25.8916H80.4919ZM89.7648 26.0916C88.2848 26.0916 87.1048 25.6649 86.2248 24.8116C85.3582 23.9449 84.8982 22.7316 84.8448 21.1716L84.8248 20.6716L84.8448 20.1716C84.9115 18.6516 85.3782 17.4583 86.2448 16.5916C87.1248 15.7249 88.2982 15.2916 89.7648 15.2916C91.3382 15.2916 92.5515 15.7716 93.4048 16.7316C94.2715 17.6916 94.7048 18.9716 94.7048 20.5716V20.9916C94.7048 21.1249 94.6582 21.2383 94.5648 21.3316C94.4715 21.4249 94.3515 21.4716 94.2048 21.4716H87.5648V21.6316C87.5915 22.3649 87.7915 22.9849 88.1648 23.4916C88.5515 23.9849 89.0782 24.2316 89.7448 24.2316C90.5315 24.2316 91.1648 23.9249 91.6448 23.3116C91.7648 23.1649 91.8582 23.0716 91.9248 23.0316C92.0048 22.9916 92.1182 22.9716 92.2648 22.9716H93.9848C94.1048 22.9716 94.2048 23.0116 94.2848 23.0916C94.3782 23.1583 94.4248 23.2449 94.4248 23.3516C94.4248 23.6716 94.2315 24.0516 93.8448 24.4916C93.4715 24.9183 92.9315 25.2916 92.2248 25.6116C91.5182 25.9316 90.6982 26.0916 89.7648 26.0916ZM91.9848 19.7916V19.7316C91.9848 18.9449 91.7848 18.3116 91.3848 17.8316C90.9982 17.3516 90.4582 17.1116 89.7648 17.1116C89.0715 17.1116 88.5315 17.3516 88.1448 17.8316C87.7582 18.3116 87.5648 18.9449 87.5648 19.7316V19.7916H91.9848ZM100.768 26.0916C99.7678 26.0916 98.9278 25.9449 98.2478 25.6516C97.5678 25.3449 97.0611 24.9916 96.7278 24.5916C96.4078 24.1783 96.2478 23.8249 96.2478 23.5316C96.2478 23.3983 96.2945 23.2916 96.3878 23.2116C96.4811 23.1316 96.5878 23.0916 96.7078 23.0916H98.2878C98.4078 23.0916 98.5078 23.1383 98.5878 23.2316C98.6411 23.2716 98.7811 23.3916 99.0078 23.5916C99.2345 23.8049 99.5011 23.9716 99.8078 24.0916C100.114 24.2116 100.454 24.2716 100.828 24.2716C101.361 24.2716 101.801 24.1649 102.148 23.9516C102.494 23.7383 102.668 23.4449 102.668 23.0716C102.668 22.7916 102.588 22.5649 102.428 22.3916C102.281 22.2183 102.008 22.0649 101.608 21.9316C101.208 21.7849 100.614 21.6316 99.8278 21.4716C98.6945 21.2316 97.8545 20.8649 97.3078 20.3716C96.7745 19.8783 96.5078 19.2249 96.5078 18.4116C96.5078 17.8783 96.6678 17.3783 96.9878 16.9116C97.3078 16.4316 97.7811 16.0449 98.4078 15.7516C99.0478 15.4449 99.8078 15.2916 100.688 15.2916C101.581 15.2916 102.354 15.4383 103.008 15.7316C103.661 16.0116 104.154 16.3516 104.488 16.7516C104.834 17.1383 105.008 17.4849 105.008 17.7916C105.008 17.9116 104.961 18.0183 104.868 18.1116C104.788 18.1916 104.688 18.2316 104.568 18.2316H103.088C102.981 18.2316 102.868 18.1849 102.748 18.0916C102.654 18.0249 102.508 17.8983 102.308 17.7116C102.108 17.5249 101.874 17.3783 101.608 17.2716C101.341 17.1649 101.028 17.1116 100.668 17.1116C100.174 17.1116 99.7878 17.2183 99.5078 17.4316C99.2411 17.6449 99.1078 17.9249 99.1078 18.2716C99.1078 18.5249 99.1745 18.7316 99.3078 18.8916C99.4411 19.0516 99.7011 19.2049 100.088 19.3516C100.474 19.4983 101.054 19.6449 101.828 19.7916C103.108 20.0449 104.021 20.4383 104.568 20.9716C105.128 21.5049 105.408 22.1583 105.408 22.9316C105.408 23.8649 105.001 24.6249 104.188 25.2116C103.374 25.7983 102.234 26.0916 100.768 26.0916ZM111.552 25.8916C111.126 25.8916 110.852 25.6916 110.732 25.2916L106.652 12.4916L106.612 12.3116C106.612 12.2049 106.652 12.1116 106.732 12.0316C106.826 11.9383 106.932 11.8916 107.052 11.8916H109.532C109.719 11.8916 109.872 11.9449 109.992 12.0516C110.126 12.1583 110.212 12.2783 110.252 12.4116L113.092 21.6516L115.912 12.4116C115.952 12.2783 116.032 12.1583 116.152 12.0516C116.286 11.9449 116.446 11.8916 116.632 11.8916H119.132C119.239 11.8916 119.332 11.9383 119.412 12.0316C119.506 12.1116 119.552 12.2049 119.552 12.3116L119.512 12.4916L115.432 25.2916C115.312 25.6916 115.039 25.8916 114.612 25.8916H111.552ZM121.92 25.8916C121.786 25.8916 121.666 25.8449 121.56 25.7516C121.466 25.6449 121.42 25.5249 121.42 25.3916V12.3916C121.42 12.2449 121.466 12.1249 121.56 12.0316C121.666 11.9383 121.786 11.8916 121.92 11.8916H127.52C129.226 11.8916 130.566 12.2849 131.54 13.0716C132.526 13.8583 133.02 15.0049 133.02 16.5116C133.02 18.0049 132.533 19.1316 131.56 19.8916C130.586 20.6383 129.24 21.0116 127.52 21.0116H125.14V25.3916C125.14 25.5383 125.086 25.6583 124.98 25.7516C124.886 25.8449 124.766 25.8916 124.62 25.8916H121.92ZM127.42 18.2516C128.006 18.2516 128.466 18.1049 128.8 17.8116C129.133 17.5049 129.3 17.0583 129.3 16.4716C129.3 15.9249 129.14 15.4916 128.82 15.1716C128.513 14.8383 128.046 14.6716 127.42 14.6716H125.08V18.2516H127.42ZM135.435 25.8916C135.302 25.8916 135.182 25.8449 135.075 25.7516C134.982 25.6449 134.935 25.5249 134.935 25.3916V12.3916C134.935 12.2449 134.982 12.1249 135.075 12.0316C135.182 11.9383 135.302 11.8916 135.435 11.8916H137.555C137.888 11.8916 138.115 12.0183 138.235 12.2716L143.115 19.9516V12.3916C143.115 12.2449 143.162 12.1249 143.255 12.0316C143.362 11.9383 143.482 11.8916 143.615 11.8916H146.015C146.162 11.8916 146.282 11.9383 146.375 12.0316C146.468 12.1249 146.515 12.2449 146.515 12.3916V25.3716C146.515 25.5183 146.468 25.6449 146.375 25.7516C146.282 25.8449 146.162 25.8916 146.015 25.8916H143.875C143.582 25.8916 143.362 25.7649 143.215 25.5116L138.335 18.1116V25.3916C138.335 25.5249 138.288 25.6449 138.195 25.7516C138.102 25.8449 137.982 25.8916 137.835 25.8916H135.435Z" fill="#0B132A"/>
<path d="M31.1473 14.4231L31.1255 14.4014C31.1238 14.4001 31.1224 14.3985 31.1215 14.3966L17.5006 0.775391L3.87983 14.3963C3.87826 14.3979 3.8758 14.401 3.8758 14.401L3.85333 14.4228C1.77053 16.5173 0.447586 19.2479 0.0948177 22.1806C-0.25795 25.1133 0.379698 28.0798 1.90639 30.6085C3.43309 33.1373 5.76122 35.0831 8.52069 36.1366C11.2802 37.1901 14.3126 37.2911 17.136 36.4231C17.3735 36.3505 17.6275 36.3505 17.8651 36.4231C20.6882 37.2907 23.7205 37.1898 26.4798 36.1361C29.2391 35.0824 31.567 33.1367 33.0936 30.6082C34.6202 28.0796 35.2579 25.1133 34.9053 22.1808C34.5526 19.2482 33.2299 16.5176 31.1473 14.4231ZM8.7232 23.4052C8.65689 23.4715 8.6043 23.5503 8.56844 23.6368C8.53256 23.7234 8.5141 23.8162 8.51412 23.91C8.53835 26.314 9.21776 28.6658 10.4792 30.7125C10.5079 30.7589 10.5211 30.8132 10.517 30.8676C10.513 30.9219 10.4918 30.9736 10.4566 31.0153C10.4213 31.057 10.3738 31.0864 10.3209 31.0994C10.2679 31.1124 10.2122 31.1084 10.1616 31.0878C9.21332 30.6889 8.35182 30.109 7.62531 29.3807C6.13646 27.8916 5.29946 25.8724 5.2981 23.7666C5.29675 21.6609 6.13117 19.6406 7.61812 18.1497L17.5006 8.26812L27.3826 18.1497C28.8698 19.6404 29.7045 21.6607 29.703 23.7666C29.7018 25.8724 28.8647 27.8916 27.3757 29.3807C26.6492 30.109 25.7877 30.6889 24.8396 31.0878C24.7889 31.1084 24.7332 31.1124 24.6802 31.0994C24.6273 31.0864 24.5798 31.0568 24.5445 31.0153C24.5093 30.9736 24.488 30.9219 24.484 30.8674C24.4799 30.8131 24.4931 30.7587 24.5218 30.7123C25.7835 28.6658 26.4633 26.314 26.4879 23.91C26.4879 23.8162 26.4692 23.7234 26.4332 23.6367C26.3971 23.55 26.3444 23.4713 26.2779 23.405L21.6037 18.4471C21.557 18.4083 21.4985 18.387 21.4378 18.387C21.3773 18.387 21.3186 18.4083 21.2721 18.4471C21.2255 18.4858 21.1942 18.5398 21.1833 18.5994C21.1724 18.6591 21.1828 18.7204 21.2127 18.7732C23.0281 22.0584 21.467 26.7771 18.8637 29.3807L18.85 29.3945C18.4907 29.7499 18.0056 29.9492 17.5002 29.949C16.9948 29.9488 16.5098 29.7492 16.1508 29.3936L16.1382 29.3807C13.5339 26.7771 11.9736 22.0589 13.7893 18.7739C13.8192 18.7211 13.8296 18.6598 13.8187 18.6001C13.8079 18.5405 13.7764 18.4865 13.7299 18.4478C13.6834 18.409 13.6247 18.3877 13.5642 18.3877C13.5036 18.3877 13.4449 18.409 13.3984 18.4478L8.7232 23.4052Z" fill="#F53838"/>
</svg>
