<svg width="148" height="37" viewBox="0 0 148 37" fill="none" xmlns="http://www.w3.org/2000/svg">
<path d="M47.04 25.1162C46.9067 25.1162 46.7933 25.0695 46.7 24.9762C46.6067 24.8829 46.56 24.7695 46.56 24.6362V11.5962C46.56 11.4495 46.6067 11.3362 46.7 11.2562C46.7933 11.1629 46.9067 11.1162 47.04 11.1162H48.9C49.0467 11.1162 49.16 11.1629 49.24 11.2562C49.3333 11.3362 49.38 11.4495 49.38 11.5962V22.7362H55.72C55.8667 22.7362 55.9867 22.7829 56.08 22.8762C56.1733 22.9695 56.22 23.0895 56.22 23.2362V24.6362C56.22 24.7829 56.1733 24.9029 56.08 24.9962C55.9867 25.0762 55.8667 25.1162 55.72 25.1162H47.04ZM60.9416 25.3162C60.2616 25.3162 59.6349 25.1829 59.0616 24.9162C58.5016 24.6362 58.0549 24.2629 57.7216 23.7962C57.4016 23.3295 57.2416 22.8162 57.2416 22.2562C57.2416 21.3495 57.6082 20.6162 58.3416 20.0562C59.0749 19.4962 60.0816 19.1162 61.3616 18.9162L64.1016 18.5162V18.0962C64.1016 17.5095 63.9549 17.0695 63.6616 16.7762C63.3682 16.4829 62.8949 16.3362 62.2416 16.3362C61.8016 16.3362 61.4416 16.4229 61.1616 16.5962C60.8949 16.7562 60.6816 16.9162 60.5216 17.0762C60.3616 17.2495 60.2549 17.3629 60.2016 17.4162C60.1482 17.5762 60.0482 17.6562 59.9016 17.6562H58.3616C58.2416 17.6562 58.1349 17.6162 58.0416 17.5362C57.9616 17.4562 57.9216 17.3495 57.9216 17.2162C57.9349 16.8829 58.0949 16.5029 58.4016 16.0762C58.7216 15.6495 59.2082 15.2829 59.8616 14.9762C60.5149 14.6695 61.3149 14.5162 62.2616 14.5162C63.8349 14.5162 64.9816 14.8695 65.7016 15.5762C66.4216 16.2829 66.7816 17.2095 66.7816 18.3562V24.6362C66.7816 24.7695 66.7349 24.8829 66.6416 24.9762C66.5616 25.0695 66.4482 25.1162 66.3016 25.1162H64.6816C64.5482 25.1162 64.4349 25.0695 64.3416 24.9762C64.2482 24.8829 64.2016 24.7695 64.2016 24.6362V23.8562C63.9082 24.2829 63.4882 24.6362 62.9416 24.9162C62.4082 25.1829 61.7416 25.3162 60.9416 25.3162ZM61.6216 23.4162C62.3549 23.4162 62.9549 23.1762 63.4216 22.6962C63.8882 22.2162 64.1216 21.5162 64.1216 20.5962V20.1762L62.1216 20.4962C61.3482 20.6162 60.7616 20.8095 60.3616 21.0762C59.9749 21.3429 59.7816 21.6695 59.7816 22.0562C59.7816 22.4829 59.9616 22.8162 60.3216 23.0562C60.6816 23.2962 61.1149 23.4162 61.6216 23.4162ZM73.2873 25.3162C72.2873 25.3162 71.4473 25.1695 70.7673 24.8762C70.0873 24.5695 69.5807 24.2162 69.2473 23.8162C68.9273 23.4029 68.7673 23.0495 68.7673 22.7562C68.7673 22.6229 68.814 22.5162 68.9073 22.4362C69.0007 22.3562 69.1073 22.3162 69.2273 22.3162H70.8073C70.9273 22.3162 71.0273 22.3629 71.1073 22.4562C71.1607 22.4962 71.3007 22.6162 71.5273 22.8162C71.754 23.0295 72.0207 23.1962 72.3273 23.3162C72.634 23.4362 72.974 23.4962 73.3473 23.4962C73.8807 23.4962 74.3207 23.3895 74.6673 23.1762C75.014 22.9629 75.1873 22.6695 75.1873 22.2962C75.1873 22.0162 75.1073 21.7895 74.9473 21.6162C74.8007 21.4429 74.5273 21.2895 74.1273 21.1562C73.7273 21.0095 73.134 20.8562 72.3473 20.6962C71.214 20.4562 70.374 20.0895 69.8273 19.5962C69.294 19.1029 69.0273 18.4495 69.0273 17.6362C69.0273 17.1029 69.1873 16.6029 69.5073 16.1362C69.8273 15.6562 70.3007 15.2695 70.9273 14.9762C71.5673 14.6695 72.3273 14.5162 73.2073 14.5162C74.1007 14.5162 74.874 14.6629 75.5273 14.9562C76.1807 15.2362 76.674 15.5762 77.0073 15.9762C77.354 16.3629 77.5273 16.7095 77.5273 17.0162C77.5273 17.1362 77.4807 17.2429 77.3873 17.3362C77.3073 17.4162 77.2073 17.4562 77.0873 17.4562H75.6073C75.5007 17.4562 75.3873 17.4095 75.2673 17.3162C75.174 17.2495 75.0273 17.1229 74.8273 16.9362C74.6273 16.7495 74.394 16.6029 74.1273 16.4962C73.8607 16.3895 73.5473 16.3362 73.1873 16.3362C72.694 16.3362 72.3073 16.4429 72.0273 16.6562C71.7607 16.8695 71.6273 17.1495 71.6273 17.4962C71.6273 17.7495 71.694 17.9562 71.8273 18.1162C71.9607 18.2762 72.2207 18.4295 72.6073 18.5762C72.994 18.7229 73.574 18.8695 74.3473 19.0162C75.6273 19.2695 76.5407 19.6629 77.0873 20.1962C77.6473 20.7295 77.9273 21.3829 77.9273 22.1562C77.9273 23.0895 77.5207 23.8495 76.7073 24.4362C75.894 25.0229 74.754 25.3162 73.2873 25.3162ZM80.4919 25.1162C80.3585 25.1162 80.2452 25.0695 80.1519 24.9762C80.0585 24.8829 80.0119 24.7695 80.0119 24.6362V11.3962C80.0119 11.2495 80.0585 11.1362 80.1519 11.0562C80.2452 10.9629 80.3585 10.9162 80.4919 10.9162H82.1519C82.2985 10.9162 82.4119 10.9629 82.4919 11.0562C82.5852 11.1362 82.6319 11.2495 82.6319 11.3962V24.6362C82.6319 24.7695 82.5852 24.8829 82.4919 24.9762C82.4119 25.0695 82.2985 25.1162 82.1519 25.1162H80.4919ZM89.7648 25.3162C88.2848 25.3162 87.1048 24.8895 86.2248 24.0362C85.3582 23.1695 84.8982 21.9562 84.8448 20.3962L84.8248 19.8962L84.8448 19.3962C84.9115 17.8762 85.3782 16.6829 86.2448 15.8162C87.1248 14.9495 88.2982 14.5162 89.7648 14.5162C91.3382 14.5162 92.5515 14.9962 93.4048 15.9562C94.2715 16.9162 94.7048 18.1962 94.7048 19.7962V20.2162C94.7048 20.3495 94.6582 20.4629 94.5648 20.5562C94.4715 20.6495 94.3515 20.6962 94.2048 20.6962H87.5648V20.8562C87.5915 21.5895 87.7915 22.2095 88.1648 22.7162C88.5515 23.2095 89.0782 23.4562 89.7448 23.4562C90.5315 23.4562 91.1648 23.1495 91.6448 22.5362C91.7648 22.3895 91.8582 22.2962 91.9248 22.2562C92.0048 22.2162 92.1182 22.1962 92.2648 22.1962H93.9848C94.1048 22.1962 94.2048 22.2362 94.2848 22.3162C94.3782 22.3829 94.4248 22.4695 94.4248 22.5762C94.4248 22.8962 94.2315 23.2762 93.8448 23.7162C93.4715 24.1429 92.9315 24.5162 92.2248 24.8362C91.5182 25.1562 90.6982 25.3162 89.7648 25.3162ZM91.9848 19.0162V18.9562C91.9848 18.1695 91.7848 17.5362 91.3848 17.0562C90.9982 16.5762 90.4582 16.3362 89.7648 16.3362C89.0715 16.3362 88.5315 16.5762 88.1448 17.0562C87.7582 17.5362 87.5648 18.1695 87.5648 18.9562V19.0162H91.9848ZM100.768 25.3162C99.7678 25.3162 98.9278 25.1695 98.2478 24.8762C97.5678 24.5695 97.0611 24.2162 96.7278 23.8162C96.4078 23.4029 96.2478 23.0495 96.2478 22.7562C96.2478 22.6229 96.2945 22.5162 96.3878 22.4362C96.4811 22.3562 96.5878 22.3162 96.7078 22.3162H98.2878C98.4078 22.3162 98.5078 22.3629 98.5878 22.4562C98.6411 22.4962 98.7811 22.6162 99.0078 22.8162C99.2345 23.0295 99.5011 23.1962 99.8078 23.3162C100.114 23.4362 100.454 23.4962 100.828 23.4962C101.361 23.4962 101.801 23.3895 102.148 23.1762C102.494 22.9629 102.668 22.6695 102.668 22.2962C102.668 22.0162 102.588 21.7895 102.428 21.6162C102.281 21.4429 102.008 21.2895 101.608 21.1562C101.208 21.0095 100.614 20.8562 99.8278 20.6962C98.6945 20.4562 97.8545 20.0895 97.3078 19.5962C96.7745 19.1029 96.5078 18.4495 96.5078 17.6362C96.5078 17.1029 96.6678 16.6029 96.9878 16.1362C97.3078 15.6562 97.7811 15.2695 98.4078 14.9762C99.0478 14.6695 99.8078 14.5162 100.688 14.5162C101.581 14.5162 102.354 14.6629 103.008 14.9562C103.661 15.2362 104.154 15.5762 104.488 15.9762C104.834 16.3629 105.008 16.7095 105.008 17.0162C105.008 17.1362 104.961 17.2429 104.868 17.3362C104.788 17.4162 104.688 17.4562 104.568 17.4562H103.088C102.981 17.4562 102.868 17.4095 102.748 17.3162C102.654 17.2495 102.508 17.1229 102.308 16.9362C102.108 16.7495 101.874 16.6029 101.608 16.4962C101.341 16.3895 101.028 16.3362 100.668 16.3362C100.174 16.3362 99.7878 16.4429 99.5078 16.6562C99.2411 16.8695 99.1078 17.1495 99.1078 17.4962C99.1078 17.7495 99.1745 17.9562 99.3078 18.1162C99.4411 18.2762 99.7011 18.4295 100.088 18.5762C100.474 18.7229 101.054 18.8695 101.828 19.0162C103.108 19.2695 104.021 19.6629 104.568 20.1962C105.128 20.7295 105.408 21.3829 105.408 22.1562C105.408 23.0895 105.001 23.8495 104.188 24.4362C103.374 25.0229 102.234 25.3162 100.768 25.3162ZM111.552 25.1162C111.126 25.1162 110.852 24.9162 110.732 24.5162L106.652 11.7162L106.612 11.5362C106.612 11.4295 106.652 11.3362 106.732 11.2562C106.826 11.1629 106.932 11.1162 107.052 11.1162H109.532C109.719 11.1162 109.872 11.1695 109.992 11.2762C110.126 11.3829 110.212 11.5029 110.252 11.6362L113.092 20.8762L115.912 11.6362C115.952 11.5029 116.032 11.3829 116.152 11.2762C116.286 11.1695 116.446 11.1162 116.632 11.1162H119.132C119.239 11.1162 119.332 11.1629 119.412 11.2562C119.506 11.3362 119.552 11.4295 119.552 11.5362L119.512 11.7162L115.432 24.5162C115.312 24.9162 115.039 25.1162 114.612 25.1162H111.552ZM121.92 25.1162C121.786 25.1162 121.666 25.0695 121.56 24.9762C121.466 24.8695 121.42 24.7495 121.42 24.6162V11.6162C121.42 11.4695 121.466 11.3495 121.56 11.2562C121.666 11.1629 121.786 11.1162 121.92 11.1162H127.52C129.226 11.1162 130.566 11.5095 131.54 12.2962C132.526 13.0829 133.02 14.2295 133.02 15.7362C133.02 17.2295 132.533 18.3562 131.56 19.1162C130.586 19.8629 129.24 20.2362 127.52 20.2362H125.14V24.6162C125.14 24.7629 125.086 24.8829 124.98 24.9762C124.886 25.0695 124.766 25.1162 124.62 25.1162H121.92ZM127.42 17.4762C128.006 17.4762 128.466 17.3295 128.8 17.0362C129.133 16.7295 129.3 16.2829 129.3 15.6962C129.3 15.1495 129.14 14.7162 128.82 14.3962C128.513 14.0629 128.046 13.8962 127.42 13.8962H125.08V17.4762H127.42ZM135.435 25.1162C135.302 25.1162 135.182 25.0695 135.075 24.9762C134.982 24.8695 134.935 24.7495 134.935 24.6162V11.6162C134.935 11.4695 134.982 11.3495 135.075 11.2562C135.182 11.1629 135.302 11.1162 135.435 11.1162H137.555C137.888 11.1162 138.115 11.2429 138.235 11.4962L143.115 19.1762V11.6162C143.115 11.4695 143.162 11.3495 143.255 11.2562C143.362 11.1629 143.482 11.1162 143.615 11.1162H146.015C146.162 11.1162 146.282 11.1629 146.375 11.2562C146.468 11.3495 146.515 11.4695 146.515 11.6162V24.5962C146.515 24.7429 146.468 24.8695 146.375 24.9762C146.282 25.0695 146.162 25.1162 146.015 25.1162H143.875C143.582 25.1162 143.362 24.9895 143.215 24.7362L138.335 17.3362V24.6162C138.335 24.7495 138.288 24.8695 138.195 24.9762C138.102 25.0695 137.982 25.1162 137.835 25.1162H135.435Z" fill="#0B132A"/>
<path d="M31.1473 13.6477L31.1255 13.626C31.1238 13.6247 31.1224 13.6231 31.1215 13.6212L17.5006 0L3.87983 13.6209C3.87826 13.6225 3.8758 13.6256 3.8758 13.6256L3.85333 13.6474C1.77053 15.7419 0.447586 18.4725 0.0948177 21.4052C-0.25795 24.3379 0.379698 27.3044 1.90639 29.8331C3.43309 32.3619 5.76122 34.3077 8.52069 35.3612C11.2802 36.4147 14.3126 36.5157 17.136 35.6477C17.3735 35.5751 17.6275 35.5751 17.8651 35.6477C20.6882 36.5153 23.7205 36.4144 26.4798 35.3607C29.2391 34.307 31.567 32.3613 33.0936 29.8328C34.6202 27.3042 35.2579 24.3379 34.9053 21.4054C34.5526 18.4728 33.2299 15.7422 31.1473 13.6477ZM8.7232 22.6298C8.65689 22.6961 8.6043 22.7749 8.56844 22.8615C8.53257 22.948 8.5141 23.0408 8.51412 23.1346C8.53835 25.5386 9.21776 27.8904 10.4792 29.9371C10.5079 29.9835 10.5211 30.0379 10.517 30.0922C10.513 30.1465 10.4918 30.1982 10.4566 30.2399C10.4213 30.2816 10.3738 30.311 10.3209 30.324C10.2679 30.337 10.2122 30.333 10.1616 30.3124C9.21332 29.9135 8.35182 29.3336 7.62531 28.6053C6.13646 27.1162 5.29946 25.097 5.2981 22.9912C5.29675 20.8855 6.13117 18.8652 7.61812 17.3743L17.5006 7.49273L27.3826 17.3743C28.8698 18.865 29.7045 20.8853 29.703 22.9912C29.7018 25.097 28.8647 27.1162 27.3757 28.6053C26.6492 29.3336 25.7877 29.9135 24.8396 30.3124C24.7889 30.333 24.7332 30.337 24.6802 30.324C24.6273 30.311 24.5798 30.2814 24.5445 30.2399C24.5093 30.1982 24.488 30.1465 24.484 30.092C24.4799 30.0377 24.4931 29.9833 24.5218 29.9369C25.7835 27.8904 26.4633 25.5386 26.4879 23.1346C26.4879 23.0408 26.4692 22.948 26.4332 22.8613C26.3971 22.7746 26.3444 22.696 26.2779 22.6296L21.6037 17.6717C21.5571 17.6329 21.4985 17.6116 21.4378 17.6116C21.3773 17.6116 21.3186 17.6329 21.2721 17.6717C21.2255 17.7104 21.1942 17.7644 21.1833 17.824C21.1724 17.8837 21.1828 17.945 21.2127 17.9978C23.0281 21.283 21.467 26.0017 18.8637 28.6053L18.85 28.6191C18.4907 28.9745 18.0056 29.1738 17.5002 29.1736C16.9948 29.1734 16.5098 28.9738 16.1508 28.6182L16.1382 28.6053C13.5339 26.0017 11.9736 21.2835 13.7893 17.9985C13.8192 17.9457 13.8296 17.8844 13.8187 17.8247C13.8079 17.7651 13.7764 17.7111 13.7299 17.6724C13.6834 17.6336 13.6247 17.6123 13.5642 17.6123C13.5036 17.6123 13.4449 17.6336 13.3984 17.6724L8.7232 22.6298Z" fill="#F53838"/>
</svg>
